<svg xmlns="http://www.w3.org/2000/svg" width="508.499" height="388.847" viewBox="0 0 508.499 388.847">
  <g id="Grupo_6358" data-name="Grupo 6358" transform="translate(-9576.671 -4140.016)">
    <path id="Trazado_2544" data-name="Trazado 2544" d="M69.167,36.835v-4.4H36.135V80.6h5.092V60.164H66.139v-4.4H41.227V36.835Zm11.286-.344a3.512,3.512,0,0,0,3.578-3.578,3.47,3.47,0,0,0-3.578-3.372,3.477,3.477,0,1,0,0,6.951ZM77.976,80.6h4.886V44.4H77.976Zm23.191-29.11V44.4h-4.68V80.6h4.886V62.159c0-8.533,4.611-13.351,12.181-13.351.344,0,.757.069,1.17.069V44.129C108.049,44.129,103.438,46.676,101.167,51.493Zm67.51-7.363c-6.538,0-11.7,2.959-14.314,7.639-2.2-5.092-6.882-7.639-12.869-7.639-6.056,0-10.735,2.546-13.282,6.882V44.4h-4.68V80.6h4.886V61.609c0-8.258,4.748-13.075,12.112-13.075,6.607,0,10.46,3.923,10.46,11.561V80.6h4.886V61.609c0-8.258,4.68-13.075,12.112-13.075,6.538,0,10.392,3.923,10.392,11.561V80.6h4.886V59.613C183.266,49.222,177.486,44.129,168.677,44.129Zm59.6,18.374c0-10.873-7.364-18.374-17.548-18.374S193.039,51.768,193.039,62.5s7.708,18.443,18.993,18.443c5.712,0,10.736-2.064,13.97-5.918l-2.753-3.165a14.269,14.269,0,0,1-11.08,4.748c-7.914,0-13.695-5.024-14.245-12.594H228.2C228.2,63.467,228.273,62.916,228.273,62.5ZM210.725,48.327c7.088,0,12.25,4.955,12.869,12.043H197.924C198.544,53.282,203.705,48.327,210.725,48.327Zm37.23,32.619c9.428,0,14.933-4.06,14.933-10.323,0-13.9-23.467-6.538-23.467-16.31,0-3.441,2.89-5.987,9.428-5.987a18.554,18.554,0,0,1,10.667,3.1l2.133-3.923c-3.028-2.065-8.12-3.372-12.8-3.372-9.222,0-14.314,4.4-14.314,10.323,0,14.314,23.467,6.882,23.467,16.31,0,3.578-2.822,5.918-9.7,5.918a21.864,21.864,0,0,1-12.869-4.06l-2.2,3.854C236.187,79.02,241.968,80.946,247.955,80.946Zm56.981,0c6.125,0,11.286-2.477,14.176-7.157l-3.647-2.477a12.243,12.243,0,0,1-10.529,5.3c-7.914,0-13.695-5.574-13.695-14.108,0-8.465,5.781-14.107,13.695-14.107a12.306,12.306,0,0,1,10.529,5.368l3.647-2.477c-2.89-4.748-8.052-7.157-14.176-7.157-10.8,0-18.65,7.57-18.65,18.374S294.131,80.946,304.935,80.946Zm37.918,0c10.6,0,18.374-7.708,18.374-18.443s-7.776-18.374-18.374-18.374S324.411,51.768,324.411,62.5,332.256,80.946,342.854,80.946Zm0-4.335c-7.708,0-13.488-5.643-13.488-14.108S335.146,48.4,342.854,48.4s13.419,5.643,13.419,14.107S350.561,76.611,342.854,76.611Zm46.8-32.482c-6.262,0-11.148,2.546-13.764,6.951V44.4h-4.68V80.6h4.886V61.609c0-8.258,4.886-13.075,12.662-13.075,6.882,0,10.873,3.923,10.873,11.561V80.6h4.886V59.613C404.514,49.222,398.458,44.129,389.65,44.129Zm45.488,30.761a8.085,8.085,0,0,1-5.368,1.858c-4.06,0-6.262-2.34-6.262-6.607V48.534h11.011V44.4H423.508V36.491h-4.886V44.4h-6.469v4.129h6.469V70.418c0,6.675,3.785,10.529,10.6,10.529a11.636,11.636,0,0,0,7.639-2.546Zm13.075-38.4a3.512,3.512,0,0,0,3.578-3.578,3.47,3.47,0,0,0-3.578-3.372,3.477,3.477,0,1,0,0,6.951ZM445.736,80.6h4.886V44.4h-4.886Zm47.346-36.2v6.951c-3.028-4.748-8.258-7.226-14.314-7.226-10.323,0-18.168,7.088-18.168,17.48s7.845,17.617,18.168,17.617c5.918,0,11.08-2.409,14.108-7.019v4.611c0,8.946-4.2,13.144-13.351,13.144-5.574,0-10.8-1.858-14.245-4.955L462.8,88.723c3.785,3.579,10.254,5.574,16.86,5.574,11.975,0,18.1-5.643,18.1-18.1V44.4ZM479.25,74.891c-7.983,0-13.695-5.436-13.695-13.282S471.267,48.4,479.25,48.4s13.763,5.368,13.763,13.213S487.233,74.891,479.25,74.891Zm47,6.056c10.6,0,18.374-7.708,18.374-18.443s-7.776-18.374-18.374-18.374S507.809,51.768,507.809,62.5,515.654,80.946,526.252,80.946Zm0-4.335c-7.708,0-13.488-5.643-13.488-14.108S518.544,48.4,526.252,48.4s13.419,5.643,13.419,14.107S533.96,76.611,526.252,76.611Z" transform="translate(9540.537 4434.566)" fill="#004ace"/>
    <path id="Trazado_2640" data-name="Trazado 2640" d="M772.624,1067.893l9.884,28.415,30.08.6-24.011,18.261,8.759,28.737-24.712-17.194L747.958,1143.9l8.728-28.737-24.07-18.261,30.14-.6Z" transform="translate(8970.795 3072.123)" fill="#004ace"/>
    <path id="Trazado_2641" data-name="Trazado 2641" d="M784.574,1067.893l9.868,28.415,30.061.6-23.974,18.261,8.691,28.737-24.646-17.194L759.791,1143.9l8.72-28.737-23.923-18.261,30.037-.6Z" transform="translate(9046.267 3072.123)" fill="#004ace"/>
    <path id="Trazado_2642" data-name="Trazado 2642" d="M796.442,1067.893l9.9,28.415,30.19.6-23.974,18.261,8.715,28.737-24.829-17.194L771.794,1143.9l8.678-28.737-23.922-18.261,30.065-.6Z" transform="translate(9121.696 3072.123)" fill="#004ace"/>
    <path id="Trazado_2643" data-name="Trazado 2643" d="M715.267,1081.9h75.012c29.809,0,56.889,10.436,56.889,43.469,0,18.634-12.426,35.772-30.8,39.746v.494c22.856,2.98,37.509,20.124,37.509,43.225,0,16.894-5.96,50.43-63.594,50.43H715.267Zm16.888,77.751h58.124c27.077,0,39.993-13.413,39.993-30.06,0-22.1-13.66-33.277-39.993-33.277H732.154Zm0,85.2h58.124c25.09.246,46.706-8.2,46.706-36.515,0-22.6-17.144-34.281-46.706-34.281H732.154Z" transform="translate(8861.404 3160.439)" fill="#004ace"/>
    <path id="Trazado_2644" data-name="Trazado 2644" d="M898.058,1262.473h-12.17l-2.235-32.294h-.5c-11.928,25.338-35.771,36.018-61.36,36.018-55.886,0-83.71-43.967-83.71-92.4s27.824-92.4,83.71-92.4c37.261,0,67.568,20.117,74.026,58.869H878.934C876.7,1119.886,855.58,1095.8,821.8,1095.8c-46.946,0-66.815,39.248-66.815,78s19.869,78,66.815,78c39.249,0,62.1-27.578,61.36-65.085H822.788V1172.3h75.27Z" transform="translate(9005.272 3157.222)" fill="#004ace"/>
    <path id="Trazado_2645" data-name="Trazado 2645" d="M765.734,1081.9h81.22c29.313,0,53.909,14.157,53.909,46.2,0,22.359-11.681,40.739-34.53,45.207v.5c23.106,2.98,29.811,18.88,31.053,39.994.745,12.168.745,36.515,8.2,45.456H886.955c-4.229-6.955-4.229-20.116-4.726-27.576-1.49-24.837-3.477-52.411-35.522-51.169H782.622v78.745H765.734Zm16.888,84.208h63.1c20.614,0,38.247-12.916,38.247-34.53s-12.914-35.275-38.247-35.275h-63.1Z" transform="translate(9179.589 3160.439)" fill="#004ace"/>
  </g>
</svg>
